<svg version="1.1" id="Uploaded to svgrepo.com" xmlns="http://www.w3.org/2000/svg" xmlns:xlink="http://www.w3.org/1999/xlink" x="0px" y="0px"
	 width="32px" height="32px" viewBox="0 0 32 32" style="enable-background:new 0 0 32 32;" xml:space="preserve">
<style type="text/css">
	.hatch_een{fill:#265AA5;}
	.hatch_twee{fill:#FFC5BB;}
</style>
<g>
	<path class="hatch_twee" d="M27.202,11.687c0.134,0.346,0.251,0.704,0.353,1.065l-2.588,2.587
		c-0.031-0.422-0.085-0.838-0.172-1.242L27.202,11.687z M23.637,11.255c0.183,0.294,0.349,0.6,0.498,0.916l2.225-2.217
		c-0.173-0.295-0.357-0.592-0.554-0.871L23.637,11.255z M25.9,18.405l2.1-2.1V16c0-0.356-0.005-0.728-0.035-1.076l-2.617,2.62
		C25.601,17.777,25.793,18.07,25.9,18.405z M28,18.891L26.891,20H28V18.891z M23.914,6.974l-2.131,2.134
		c0.256,0.215,0.496,0.446,0.726,0.688l2.117-2.117C24.395,7.439,24.165,7.195,23.914,6.974z M4.929,11.377l6.448-6.448
		C8.473,6.146,6.146,8.473,4.929,11.377z M18.612,4.284l-2.726,2.722C15.924,7.005,15.961,7,16,7c0.413,0,0.816,0.037,1.214,0.091
		l2.497-2.497C19.348,4.476,18.989,4.368,18.612,4.284z M22.439,5.867c-0.29-0.185-0.602-0.345-0.909-0.505L19.27,7.622
		c0.333,0.13,0.66,0.274,0.973,0.442L22.439,5.867z M7,17.278V16c0-0.039,0.005-0.076,0.006-0.114L4,18.891V20h0.306l1.944-1.944
		C6.427,17.734,6.683,17.463,7,17.278z M7.649,12.657c0.913-2.279,2.729-4.095,5.008-5.008l3.646-3.646C16.205,4.001,16.098,4,16,4
		c-0.394,0-0.783,0.022-1.168,0.059L4.059,14.832C4.022,15.217,4,15.606,4,16v0.306L7.649,12.657z"/>
	<path class="hatch_een" d="M29,20.278V16c0-7.168-5.832-13-13-13S3,8.832,3,16v4.278C2.405,20.625,2,21.263,2,22v3
		c0,1.103,0.897,2,2,2h2v1c0,1.103,0.897,2,2,2h2c1.103,0,2-0.897,2-2v-9c0-1.103-0.897-2-2-2H8v-1c0-4.411,3.589-8,8-8
		c4.411,0,8,3.589,8,8v1h-2c-1.103,0-2,0.897-2,2v9c0,1.103,0.897,2,2,2h2c1.103,0,2-0.897,2-2v-1h2c1.103,0,2-0.897,2-2v-3
		C30,21.263,29.595,20.625,29,20.278z M6,26H4c-0.552,0-1-0.448-1-1v-3c0-0.552,0.448-1,1-1h2V26z M10,18c0.552,0,1,0.448,1,1v9
		c0,0.552-0.448,1-1,1H8c-0.552,0-1-0.448-1-1v-9c0-0.552,0.448-1,1-1H10z M25,28c0,0.552-0.448,1-1,1h-2c-0.552,0-1-0.448-1-1v-9
		c0-0.552,0.448-1,1-1h2c0.552,0,1,0.448,1,1V28z M25,17.278V16c0-4.971-4.029-9-9-9s-9,4.029-9,9v1.278C6.405,17.625,6,18.263,6,19
		v1H4v-4C4,9.383,9.383,4,16,4s12,5.383,12,12v4h-2v-1C26,18.263,25.595,17.625,25,17.278z M29,25c0,0.552-0.448,1-1,1h-2v-5h2
		c0.552,0,1,0.448,1,1V25z"/>
</g>
</svg>